<svg xmlns="http://www.w3.org/2000/svg" viewBox="0 0 592.05 146.43"><defs><style>.cls-1{fill:#2196f3;}.cls-2{fill:#fff;}</style></defs><g id="Layer_2" data-name="Layer 2"><g id="Layer_1-2" data-name="Layer 1"><path class="cls-1" d="M434.42,140.4c-.25,0-.35-.1-.45-.35l-4.71-9.62h-5.2a.19.19,0,0,0-.21.21v9.41a.32.32,0,0,1-.34.35h-2.39a.33.33,0,0,1-.35-.35V117.2a.33.33,0,0,1,.35-.35h8.52c4.4,0,7.37,2.7,7.37,6.79a6.41,6.41,0,0,1-4.64,6.41l5,9.93c.14.21,0,.42-.2.42Zm-.49-16.76c0-2.46-1.63-3.91-4.36-3.91h-5.51a.18.18,0,0,0-.21.2v7.42a.18.18,0,0,0,.21.2h5.51C432.3,127.55,433.93,126.1,433.93,123.64Z"/><path class="cls-1" d="M445.32,135.27c-.45-1.35-.62-2.77-.62-6.64s.17-5.3.62-6.65c1.21-3.64,4.05-5.51,8-5.51s6.82,1.87,8,5.51c.45,1.35.63,2.77.63,6.65s-.18,5.29-.63,6.64c-1.21,3.64-4.05,5.51-8,5.51S446.53,138.91,445.32,135.27Zm13-.86a20.07,20.07,0,0,0,.52-5.78,20.1,20.1,0,0,0-.52-5.79,5.33,5.33,0,0,0-10,0,20.1,20.1,0,0,0-.52,5.79,20.07,20.07,0,0,0,.52,5.78,5.33,5.33,0,0,0,10,0Z"/><path class="cls-1" d="M470.42,117.2a.33.33,0,0,1,.35-.35h8.34c4.75,0,7.1,2.43,7.1,6.2,0,2.74-1.31,4.4-3.15,5.13v.06a5.45,5.45,0,0,1,3.57,5.44c0,4.4-2.77,6.72-7.69,6.72h-8.17a.33.33,0,0,1-.35-.35ZM479,127c2.6,0,4.12-1.49,4.12-3.67s-1.52-3.7-4.12-3.7h-5.33a.19.19,0,0,0-.21.21v7a.18.18,0,0,0,.21.2Zm-5.33,10.56h5.51c2.8,0,4.33-1.52,4.33-3.87s-1.53-3.88-4.33-3.88h-5.51a.19.19,0,0,0-.21.21v7.34C473.5,137.53,473.57,137.59,473.71,137.59Z"/><path class="cls-1" d="M494.59,135.27c-.45-1.35-.63-2.77-.63-6.64s.18-5.3.63-6.65c1.21-3.64,4.05-5.51,8-5.51s6.82,1.87,8,5.51c.45,1.35.62,2.77.62,6.65s-.17,5.29-.62,6.64c-1.21,3.64-4.05,5.51-8,5.51S495.8,138.91,494.59,135.27Zm13-.86a20.46,20.46,0,0,0,.52-5.78,20.5,20.5,0,0,0-.52-5.79,5.33,5.33,0,0,0-10,0,20.1,20.1,0,0,0-.52,5.79,20.07,20.07,0,0,0,.52,5.78,5.33,5.33,0,0,0,10,0Z"/><path class="cls-1" d="M524.05,140.4a.32.32,0,0,1-.34-.35V119.93a.18.18,0,0,0-.21-.2h-6.44a.33.33,0,0,1-.35-.35V117.2a.33.33,0,0,1,.35-.35h16.38a.33.33,0,0,1,.34.35v2.18a.33.33,0,0,1-.34.35H527a.18.18,0,0,0-.21.2v20.12a.33.33,0,0,1-.35.35Z"/><path class="cls-1" d="M540.91,117.2a.33.33,0,0,1,.35-.35h2.39a.32.32,0,0,1,.34.35v22.85a.32.32,0,0,1-.34.35h-2.39a.33.33,0,0,1-.35-.35Z"/><path class="cls-1" d="M552.44,128.63c0-3.92.17-5.27.63-6.62,1.17-3.7,4-5.54,7.82-5.54a7.86,7.86,0,0,1,7.55,4.75.35.35,0,0,1-.14.45l-2.08,1a.35.35,0,0,1-.48-.17,5.14,5.14,0,0,0-4.85-3.15,4.72,4.72,0,0,0-4.88,3.46c-.31,1-.45,2.11-.45,5.82s.14,4.84.45,5.81a4.72,4.72,0,0,0,4.88,3.47,5.15,5.15,0,0,0,4.85-3.16.35.35,0,0,1,.48-.17l2.08,1a.34.34,0,0,1,.14.45,7.86,7.86,0,0,1-7.55,4.74c-3.84,0-6.65-1.83-7.82-5.54C552.61,133.89,552.44,132.54,552.44,128.63Z"/><path class="cls-1" d="M575.19,137.84a.38.38,0,0,1,0-.52l1.53-1.8a.3.3,0,0,1,.48,0,10.88,10.88,0,0,0,6.58,2.43c3.26,0,5.19-1.63,5.19-4,0-2-1.14-3.36-4.91-3.84l-1.18-.18c-4.57-.62-6.93-2.8-6.93-6.51,0-4.19,3-6.89,7.69-6.89a12.5,12.5,0,0,1,7.17,2.18.32.32,0,0,1,.07.49l-1.18,1.9a.32.32,0,0,1-.48.07,10.4,10.4,0,0,0-5.68-1.76c-2.88,0-4.47,1.55-4.47,3.81,0,2,1.32,3.28,5,3.77l1.15.17c4.6.63,6.92,2.74,6.92,6.58,0,4.12-2.91,7.1-8.59,7.1A12.94,12.94,0,0,1,575.19,137.84Z"/><path class="cls-1" d="M84.62,69.55a.31.31,0,0,0,.15-.36,20.62,20.62,0,0,0-2.2-6,.36.36,0,0,0-.39-.21l-3.34.38h-.11a17.39,17.39,0,0,0-3.32-3.64,0,0,0,0,1,0,0,.8.8,0,0,1,0-.26c.23-1,.43-2.1.63-3.17,0-.14,0-.25-.11-.36a22.18,22.18,0,0,0-5.81-2.72.45.45,0,0,0-.51.15c-.61.79-1.26,1.54-1.87,2.34a.89.89,0,0,1-.36.3,17.58,17.58,0,0,0-3.18-.29,14.93,14.93,0,0,0-1.65.09.6.6,0,0,1-.16-.16c-.62-.91-1.23-1.82-1.85-2.75a.31.31,0,0,0-.38-.15,20.79,20.79,0,0,0-6,2.2.33.33,0,0,0-.19.37c.12,1.14.25,2.28.36,3.4a.1.1,0,0,1,0,.07,17.69,17.69,0,0,0-3.63,3.33h0a.35.35,0,0,1-.13,0c-1.05-.21-2.11-.4-3.16-.62a.43.43,0,0,0-.54.22,21.71,21.71,0,0,0-2.67,5.71.38.38,0,0,0,.14.44c.8.63,1.58,1.31,2.38,1.93A.93.93,0,0,1,47,70a16.08,16.08,0,0,0-.31,3.2,15.3,15.3,0,0,0,.09,1.67.23.23,0,0,1-.07.09c-.93.63-1.87,1.27-2.81,1.89a.35.35,0,0,0-.16.44,19.73,19.73,0,0,0,2,5.63c.29.58.29.58.94.51l3.06-.32a18.16,18.16,0,0,0,3.34,3.66.76.76,0,0,1,0,.14c-.21,1-.4,2.11-.64,3.18a.47.47,0,0,0,.22.52,21.26,21.26,0,0,0,5.72,2.65.4.4,0,0,0,.49-.16c.67-.85,1.35-1.67,2-2.53a.24.24,0,0,1,.12-.11,16.45,16.45,0,0,0,3.23.3,15.68,15.68,0,0,0,1.69-.08.73.73,0,0,1,.16.18c.6.91,1.22,1.82,1.83,2.75.08.11.14.18.27.14a20.25,20.25,0,0,0,6.21-2.27.28.28,0,0,0,.12-.26c-.11-1.13-.23-2.27-.36-3.41,0,0,0-.07,0-.11a18.37,18.37,0,0,0,3.62-3.31h0a.66.66,0,0,1,.2,0l3.2.64a.35.35,0,0,0,.42-.18,20.93,20.93,0,0,0,2.7-5.76.41.41,0,0,0-.14-.47c-.86-.68-1.67-1.36-2.5-2a.42.42,0,0,1-.17-.18,16.13,16.13,0,0,0,.31-3.22,15.43,15.43,0,0,0-.09-1.67.64.64,0,0,1,.21-.18ZM64.22,82.44a9.23,9.23,0,1,1,9.25-9.23A9.23,9.23,0,0,1,64.22,82.44Z"/><path class="cls-1" d="M171.2,69.55a.3.3,0,0,0,.16-.36,20.62,20.62,0,0,0-2.2-6,.36.36,0,0,0-.39-.21l-3.34.38h-.11A17.67,17.67,0,0,0,162,59.67a0,0,0,0,1,0,0,.8.8,0,0,1,0-.26c.23-1,.42-2.1.63-3.17a.29.29,0,0,0-.11-.36,22.1,22.1,0,0,0-5.82-2.72.45.45,0,0,0-.51.15c-.6.79-1.25,1.54-1.86,2.34a1,1,0,0,1-.36.3,17.58,17.58,0,0,0-3.18-.29,15.25,15.25,0,0,0-1.66.09.79.79,0,0,1-.15-.16c-.62-.91-1.23-1.82-1.85-2.75a.32.32,0,0,0-.39-.15,20.83,20.83,0,0,0-6,2.2.33.33,0,0,0-.19.37c.12,1.14.24,2.28.36,3.4a.1.1,0,0,1,0,.07,17.19,17.19,0,0,0-3.63,3.33h0a.3.3,0,0,1-.12,0c-1.05-.21-2.11-.4-3.16-.62a.43.43,0,0,0-.54.22,21.4,21.4,0,0,0-2.67,5.71.37.37,0,0,0,.14.44c.8.63,1.57,1.31,2.37,1.93a1,1,0,0,1,.3.31,16.08,16.08,0,0,0-.31,3.2c0,.57,0,1.12.08,1.67a.13.13,0,0,1-.07.09c-.92.63-1.86,1.27-2.8,1.89a.36.36,0,0,0-.17.44,20.05,20.05,0,0,0,2,5.63c.29.58.29.58.94.51l3.05-.32a18.21,18.21,0,0,0,3.35,3.66.39.39,0,0,1,0,.14c-.2,1-.4,2.11-.63,3.18a.47.47,0,0,0,.22.52,21.12,21.12,0,0,0,5.72,2.65.38.38,0,0,0,.48-.16c.68-.85,1.36-1.67,2-2.53a.3.3,0,0,1,.13-.11,16.45,16.45,0,0,0,3.23.3,15.81,15.81,0,0,0,1.69-.08.73.73,0,0,1,.16.18c.6.91,1.22,1.82,1.83,2.75.08.11.13.18.27.14A20.25,20.25,0,0,0,161,91.49a.32.32,0,0,0,.12-.26c-.11-1.13-.23-2.27-.36-3.41,0,0,0-.07,0-.11a18.09,18.09,0,0,0,3.62-3.31h0a.74.74,0,0,1,.21,0l3.19.64a.35.35,0,0,0,.43-.18,20.93,20.93,0,0,0,2.7-5.76.41.41,0,0,0-.14-.47c-.86-.68-1.67-1.36-2.5-2a.36.36,0,0,1-.17-.18,16.13,16.13,0,0,0,.31-3.22,15.43,15.43,0,0,0-.09-1.67.55.55,0,0,1,.21-.18ZM150.81,82.44a9.23,9.23,0,1,1,9.24-9.23A9.23,9.23,0,0,1,150.81,82.44Z"/><path class="cls-2" d="M281.89,83.23q0,10.33-7.62,16.22t-19.4,5.89q-17.09,0-26.61-9.63l9.21-9.21q6.15,6.15,17.61,6.14,12.89,0,12.89-9c0-2.73-.71-4.76-2.15-6.09a11.85,11.85,0,0,0-6.55-2.61l-8.8-1.23q-19.33-2.65-19.34-20.37,0-9.92,6.86-16t18.52-6.09q14.75,0,23.54,8.49l-9,8.9q-5.22-5-14.94-5-5.43,0-8.34,2.61a8.46,8.46,0,0,0-2.92,6.6,7,7,0,0,0,2.31,5.32,11.82,11.82,0,0,0,6.6,2.77l8.59,1.23q9.32,1.32,13.92,5.62Q281.89,73.1,281.89,83.23Z"/><path class="cls-2" d="M342.07,44.54H323v60.18H308.81V44.54h-19V31.85h52.3Z"/><path class="cls-2" d="M408.8,104.72H392.32L378.1,75.65H367.86v29.07H353.64V31.85h28.55q10.85,0,17.4,6.55a21.37,21.37,0,0,1,6.24,15.76,19.48,19.48,0,0,1-13.3,19.14ZM391.61,54.11a9,9,0,0,0-2.87-6.92,10.55,10.55,0,0,0-7.47-2.65H367.86V63.68h13.41A10.55,10.55,0,0,0,388.74,61,9,9,0,0,0,391.61,54.11Z"/><path class="cls-2" d="M468.57,104.72h-48V31.85h48V44.54H434.8V61.63h28.76V74.32H434.8V92h33.77Z"/><path class="cls-2" d="M529.67,83.23q0,10.33-7.62,16.22t-19.4,5.89q-17.08,0-26.61-9.63l9.21-9.21q6.15,6.15,17.61,6.14,12.9,0,12.9-9,0-4.1-2.15-6.09a11.91,11.91,0,0,0-6.56-2.61l-8.8-1.23q-19.33-2.65-19.34-20.37,0-9.92,6.86-16t18.52-6.09q14.74,0,23.54,8.49l-9,8.9q-5.22-5-15-5-5.42,0-8.34,2.61a8.49,8.49,0,0,0-2.92,6.6,7,7,0,0,0,2.31,5.32,11.82,11.82,0,0,0,6.6,2.77l8.6,1.23q9.3,1.32,13.92,5.62Q529.67,73.1,529.67,83.23Z"/><path class="cls-2" d="M590.16,83.23q0,10.33-7.62,16.22t-19.4,5.89q-17.08,0-26.61-9.63l9.21-9.21q6.15,6.15,17.61,6.14,12.89,0,12.89-9c0-2.73-.71-4.76-2.15-6.09a11.88,11.88,0,0,0-6.55-2.61l-8.8-1.23q-19.35-2.65-19.34-20.37,0-9.92,6.85-16t18.53-6.09q14.73,0,23.54,8.49l-9,8.9q-5.22-5-14.94-5-5.43,0-8.34,2.61a8.46,8.46,0,0,0-2.92,6.6,7,7,0,0,0,2.3,5.32A11.89,11.89,0,0,0,562,60.92l8.59,1.23q9.32,1.32,13.92,5.62Q590.16,73.1,590.16,83.23Z"/><path class="cls-2" d="M215.05,73.23l-14,13.93V112.6a35.22,35.22,0,0,1-13.95,27.93A34.4,34.4,0,0,1,176,146.15a7.16,7.16,0,0,1-2,.28,7,7,0,0,1-2-13.68,21.08,21.08,0,0,0,15.09-20.15V81.4l8.19-8.17L187.15,65V35a21.07,21.07,0,0,0-21.06-21h-30.8a20.32,20.32,0,0,0-13.77,4.67c-6.62,5.6-7,13.7-7,15.28v77.52a35,35,0,0,1-14,28,35.19,35.19,0,0,1-21,7H49a35,35,0,0,1-35-35l-.05-24.28L0,73.23l13.93-14L14,33.87a35.17,35.17,0,0,1,14-27.93A34.47,34.47,0,0,1,39.09.29,7,7,0,0,1,43,13.69,21.14,21.14,0,0,0,27.93,33.87V65l-8.21,8.23,8.21,8.22v30a21.07,21.07,0,0,0,21,21H79.51a21.07,21.07,0,0,0,21-21V33.87c0-3.75,1-16.55,11.92-25.87.67-.58,1.34-1.09,2-1.58a33.52,33.52,0,0,1,9.31-4.72A36.07,36.07,0,0,1,135.68,0h30.41a35.11,35.11,0,0,1,35,35V59.28Z"/></g></g></svg>